<svg width="186" height="24" viewBox="0 0 186 24" fill="none" xmlns="http://www.w3.org/2000/svg">
<path d="M4 12H20" stroke="#8F8881" stroke-width="1.5" stroke-linecap="round" stroke-linejoin="round"/>
<path d="M8.99996 17C8.99996 17 4.00001 13.3176 4 12C3.99999 10.6824 9 7 9 7" stroke="#8F8881" stroke-width="1.5" stroke-linecap="round" stroke-linejoin="round"/>
<path d="M62.593 8.19486C63.0376 8.52237 63.1326 9.14837 62.8051 9.59306C62.5507 9.93847 62.2963 10.2668 62.0731 10.5528C61.6276 11.1236 61.0143 11.8882 60.3479 12.6556C59.6859 13.4181 58.9518 14.2064 58.2666 14.8119C57.9251 15.1136 57.5721 15.3911 57.2279 15.5986C56.9112 15.7895 56.476 16 55.9999 16C55.5238 16 55.0885 15.7895 54.7718 15.5986C54.4276 15.3911 54.0747 15.1136 53.7332 14.8119C53.0479 14.2064 52.3139 13.4181 51.6518 12.6556C50.9855 11.8882 50.3722 11.1236 49.9266 10.5528C49.7035 10.2668 49.449 9.93847 49.1946 9.59307C48.8671 9.14837 48.9621 8.52237 49.4068 8.19486C49.5856 8.0632 49.7936 7.99983 49.9998 8H55.9999H61.9999C62.2061 7.99983 62.4142 8.0632 62.593 8.19486Z" fill="#8F8881"/>
<path d="M95 2C95 1.44772 94.5523 1 94 1C93.4477 1 93 1.44772 93 2V2.44885C93.3803 2.32821 93.7855 2.24208 94.2153 2.17961C94.4633 2.14357 94.7247 2.11476 95 2.09173V2Z" fill="#8F8881"/>
<path d="M107 2.44885C106.62 2.32821 106.215 2.24208 105.785 2.17961C105.537 2.14357 105.275 2.11476 105 2.09173V2C105 1.44772 105.448 1 106 1C106.552 1 107 1.44772 107 2V2.44885Z" fill="#8F8881"/>
<path fill-rule="evenodd" clip-rule="evenodd" d="M101.029 2H98.9712C97.0229 1.99997 95.4514 1.99994 94.2153 2.17961C92.9254 2.3671 91.8568 2.76781 91.018 3.6746C90.1895 4.57031 89.8328 5.69272 89.6642 7.04866C89.5 8.36894 89.5 10.0541 89.5 12.1739V12.8261C89.5 14.9459 89.5 16.6311 89.6642 17.9513C89.8328 19.3073 90.1895 20.4297 91.018 21.3254C91.8568 22.2322 92.9254 22.6329 94.2153 22.8204C95.4514 23.0001 97.0229 23 98.9712 23H101.029C102.977 23 104.549 23.0001 105.785 22.8204C107.075 22.6329 108.143 22.2322 108.982 21.3254C109.811 20.4297 110.167 19.3073 110.336 17.9513C110.5 16.6311 110.5 14.9459 110.5 12.8261V12.1739C110.5 10.0541 110.5 8.36895 110.336 7.04866C110.167 5.69272 109.811 4.57031 108.982 3.6746C108.143 2.76781 107.075 2.3671 105.785 2.17961C104.549 1.99994 102.977 1.99997 101.029 2ZM92.4978 9C92.0392 9 91.8099 9 91.6639 9.14417C91.5178 9.28833 91.5149 9.51472 91.509 9.96751C91.5003 10.6407 91.5 11.3942 91.5 12.2432V12.7568C91.5 14.9616 91.5018 16.5221 91.6489 17.7045C91.7933 18.8656 92.0626 19.5094 92.4862 19.9673C92.8996 20.4142 93.4647 20.6903 94.503 20.8412C95.5786 20.9975 97.0043 21 99.05 21H100.95C102.996 21 104.421 20.9975 105.497 20.8412C106.535 20.6903 107.1 20.4142 107.514 19.9673C107.937 19.5094 108.207 18.8656 108.351 17.7045C108.498 16.5221 108.5 14.9616 108.5 12.7568V12.2432C108.5 11.3942 108.5 10.6407 108.491 9.96751C108.485 9.51472 108.482 9.28833 108.336 9.14417C108.19 9 107.961 9 107.502 9H92.4978Z" fill="#8F8881"/>
<path fill-rule="evenodd" clip-rule="evenodd" d="M94.75 13C94.75 12.3096 95.3096 11.75 96 11.75H96.009C96.6993 11.75 97.259 12.3096 97.259 13C97.259 13.6904 96.6993 14.25 96.009 14.25H96C95.3096 14.25 94.75 13.6904 94.75 13ZM98.7455 13C98.7455 12.3096 99.3052 11.75 99.9955 11.75H100.005C100.695 11.75 101.255 12.3096 101.255 13C101.255 13.6904 100.695 14.25 100.005 14.25H99.9955C99.3052 14.25 98.7455 13.6904 98.7455 13ZM102.741 13C102.741 12.3096 103.301 11.75 103.991 11.75H104C104.69 11.75 105.25 12.3096 105.25 13C105.25 13.6904 104.69 14.25 104 14.25H103.991C103.301 14.25 102.741 13.6904 102.741 13ZM94.75 17C94.75 16.3096 95.3096 15.75 96 15.75H96.009C96.6993 15.75 97.259 16.3096 97.259 17C97.259 17.6904 96.6993 18.25 96.009 18.25H96C95.3096 18.25 94.75 17.6904 94.75 17ZM98.7455 17C98.7455 16.3096 99.3052 15.75 99.9955 15.75H100.005C100.695 15.75 101.255 16.3096 101.255 17C101.255 17.6904 100.695 18.25 100.005 18.25H99.9955C99.3052 18.25 98.7455 17.6904 98.7455 17Z" fill="#8F8881"/>
<path d="M149.478 9.01106C149.485 9.01102 149.493 9.01101 149.5 9.01101C151.985 9.01101 154 11.0294 154 13.5193C154 15.8398 152.25 17.7508 150 18M149.478 9.01106C149.492 8.84606 149.5 8.67896 149.5 8.51009C149.5 5.46695 147.038 3 144 3C141.123 3 138.762 5.21267 138.52 8.03192M149.478 9.01106C149.375 10.1476 148.929 11.1846 148.243 12.0165M138.52 8.03192C135.984 8.27373 134 10.4139 134 13.0183C134 15.4417 135.718 17.4632 138 17.9273M138.52 8.03192C138.678 8.01687 138.838 8.00917 139 8.00917C140.126 8.00917 141.165 8.38194 142 9.01101" stroke="#8F8881" stroke-width="1.5" stroke-linecap="round" stroke-linejoin="round"/>
<path d="M144 13V21M144 13C143.3 13 141.992 14.9943 141.5 15.5M144 13C144.7 13 146.009 14.9943 146.5 15.5" stroke="#8F8881" stroke-width="1.5" stroke-linecap="round" stroke-linejoin="round"/>
<path fill-rule="evenodd" clip-rule="evenodd" d="M185.878 8.02038C186.143 8.50493 185.965 9.11257 185.48 9.37756C184.109 10.1275 182.821 11.6975 181.837 13.2032C181.358 13.9372 180.973 14.6207 180.709 15.1204C180.577 15.3697 180.476 15.5721 180.408 15.7105C180.374 15.7797 180.349 15.8328 180.332 15.8678L180.314 15.9063L180.31 15.9149L180.31 15.9159C180.155 16.2536 179.826 16.4782 179.455 16.4987C179.084 16.5191 178.733 16.3323 178.542 16.0135C178.231 15.494 177.738 15.0198 177.28 14.6581C177.058 14.4823 176.858 14.3437 176.715 14.2502C176.644 14.2036 176.587 14.1687 176.551 14.1464C176.532 14.1352 176.519 14.1273 176.511 14.1226L176.504 14.1187C176.025 13.845 175.858 13.2344 176.132 12.7548C176.405 12.275 177.016 12.1079 177.496 12.3815L177 13.2502C177.496 12.3815 177.495 12.3814 177.496 12.3815L177.497 12.3825L177.5 12.3838L177.506 12.3875L177.525 12.3989C177.541 12.4083 177.563 12.4212 177.59 12.4377C177.644 12.4705 177.719 12.5173 177.811 12.5772C177.993 12.6965 178.243 12.8696 178.52 13.0892C178.733 13.257 178.97 13.4587 179.209 13.6911C179.466 13.2297 179.787 12.685 180.163 12.1096C181.18 10.5529 182.692 8.62286 184.52 7.62282C185.005 7.35782 185.613 7.53582 185.878 8.02038Z" fill="#8F8881"/>
</svg>
